<svg xmlns="http://www.w3.org/2000/svg" fill="none" width="102.848" height="30.848" viewBox="0 0 102.848 30.848"><defs><linearGradient x1=".5" x2=".5" y2="1" id="a"><stop offset="0%" stop-color="#6100DF"/><stop offset="100%" stop-color="#8C00F3"/></linearGradient><linearGradient x1=".858" y1=".86" x2="-.24" y2="-.277" id="b"><stop offset="0%" stop-color="#B200BB"/><stop offset="100%" stop-color="#7F00D4"/></linearGradient><linearGradient x1="2.451" y1="1.269" x2="-2.212" y2="-1.201" id="c"><stop offset="0%" stop-color="#F61B4A"/><stop offset="100%" stop-color="#FF1365"/></linearGradient><linearGradient x1="1" x2=".5" y2="1.333" id="d"><stop offset="0%" stop-color="#1A31FD"/><stop offset="100%" stop-color="#4677FD"/></linearGradient><linearGradient x1="-.035" y1="1.019" x2="1.117" y2="-.056" id="e"><stop offset="0%" stop-color="#1BA7FF"/><stop offset="100%" stop-color="#0953FF"/></linearGradient><linearGradient x1="-.167" y1="-1.667" x2="1.605" y2="2.764" id="f"><stop offset="0%" stop-color="#F9F26E"/><stop offset="100%" stop-color="#FFF350"/></linearGradient><linearGradient x1=".01" y1=".01" x2="1.181" y2="1.181" id="g"><stop offset="0%" stop-color="#F3F314"/><stop offset="100%" stop-color="#D8DC05"/></linearGradient><linearGradient x1=".9" y1=".097" x2="-.271" y2="1.309" id="h"><stop offset="0%" stop-color="#FFCD50"/><stop offset="98.571%" stop-color="#FFBE22"/></linearGradient><linearGradient x1="2.327" y1="1.884" x2="-2.085" y2="-.452" id="i"><stop offset="0%" stop-color="#FAD522"/><stop offset="100%" stop-color="#FAE11C"/></linearGradient><linearGradient x1="1.032" y1="3.137" x2="-1.083" y2="-1.117" id="j"><stop offset="0%" stop-color="#FF8637"/><stop offset="100%" stop-color="#FD6E1B"/></linearGradient><linearGradient x1="-1.974" y1="1.103" x2="1.797" y2="-.049" id="k"><stop offset="0%" stop-color="#01CB75"/><stop offset="100%" stop-color="#02AA6B"/></linearGradient><linearGradient x1="-1.758" y1="-.431" x2="2.348" y2="1.744" id="l"><stop offset="0%" stop-color="#97E723"/><stop offset="100%" stop-color="#7ACD00"/></linearGradient></defs><rect width="30.848" height="30.848" rx="8" fill="#FFF" opacity=".2"/><path d="M15.429 28.043h7.288l-7.288-12.62v12.62z" fill-rule="evenodd" fill="url(#a)"/><path d="M22.722 28.043h.1c2.87 0 5.221-2.35 5.221-5.221v-.116L15.43 15.424l7.293 12.62z" fill-rule="evenodd" fill="url(#b)"/><path d="M15.429 15.424l12.614 7.282v-7.282H15.43z" fill-rule="evenodd" fill="url(#c)"/><path d="M8.147 28.043h7.282v-12.62l-7.282 12.62z" fill-rule="evenodd" fill="url(#d)"/><path d="M2.804 22.712v.11c0 2.87 2.35 5.221 5.227 5.221h.116l7.282-12.62-12.625 7.289z" fill-rule="evenodd" fill="url(#e)"/><path d="M8.141 2.804l7.288 12.62V2.804H8.14z" fill-rule="evenodd" fill="url(#f)"/><path d="M8.03 2.804c-2.875 0-5.226 2.35-5.226 5.222v.11l12.625 7.288-7.288-12.62h-.11z" fill-rule="evenodd" fill="url(#g)"/><path d="M22.722 2.804l-7.293 12.62 12.614-7.277V8.03c0-2.876-2.35-5.227-5.221-5.227h-.1z" fill-rule="evenodd" fill="url(#h)"/><path d="M15.429 2.804v12.62l7.288-12.62h-7.288z" fill-rule="evenodd" fill="url(#i)"/><path d="M15.429 15.424h12.614V8.146L15.43 15.424z" fill-rule="evenodd" fill="url(#j)"/><path d="M2.804 15.424v7.288l12.625-7.288H2.804z" fill-rule="evenodd" fill="url(#k)"/><path d="M2.804 15.424H15.43L2.804 8.136v7.288z" fill-rule="evenodd" fill="url(#l)"/><g><path d="M39.002 27.144h2.761V12.46h3.49V10.13h-3.49V8.92c0-2.205.82-3.137 3.308-3.137v-2.36c-4.248 0-6.069 1.708-6.069 5.496v1.211h-2.154v2.329h2.154v14.685zm24.337-8.538c0-5.371-3.672-8.755-8.406-8.755-4.703 0-8.405 3.384-8.405 8.755 0 5.403 3.58 8.818 8.284 8.818 4.734 0 8.527-3.415 8.527-8.818zm-13.99 0c0-4.284 2.64-6.303 5.554-6.303 2.852 0 5.614 2.019 5.614 6.303 0 4.316-2.822 6.334-5.705 6.334s-5.462-2.018-5.462-6.334zm17.328 3.881c0 3.416 1.669 4.657 4.612 4.657h2.488v-2.39h-2.033c-1.7 0-2.306-.59-2.306-2.267V12.46h4.34V10.13h-4.34V5.846h-2.761v4.284h-2.155v2.329h2.155v10.028zm25.307-3.88c0-5.372-3.672-8.756-8.405-8.756-4.704 0-8.406 3.384-8.406 8.755 0 5.403 3.58 8.818 8.284 8.818 4.734 0 8.527-3.415 8.527-8.818zm-13.989 0c0-4.285 2.64-6.304 5.553-6.304 2.853 0 5.614 2.019 5.614 6.303 0 4.316-2.822 6.334-5.705 6.334-2.882 0-5.462-2.018-5.462-6.334zm19.482-.715c0-3.943 2.002-5.154 4.642-5.154h.729V9.82c-2.64 0-4.43 1.18-5.371 3.073V10.13h-2.762v17.014h2.762v-9.252z" fill="#2B2B2B"/></g></svg>